<svg width="55" height="62" viewBox="0 0 55 62" fill="none" xmlns="http://www.w3.org/2000/svg">
<mask id="path-1-inside-1" fill="white">
<path fill-rule="evenodd" clip-rule="evenodd" d="M7.5 0.677331C4.16667 -1.24717 7.95786e-07 1.15846 7.40903e-07 5.00746L0 56.969C-5.48825e-08 60.818 4.16667 63.2236 7.5 61.2991L52.5 35.3183C55.8333 33.3938 55.8333 28.5826 52.5 26.6581L7.5 0.677331Z"/>
</mask>
<path fill-rule="evenodd" clip-rule="evenodd" d="M7.5 0.677331C4.16667 -1.24717 7.95786e-07 1.15846 7.40903e-07 5.00746L0 56.969C-5.48825e-08 60.818 4.16667 63.2236 7.5 61.2991L52.5 35.3183C55.8333 33.3938 55.8333 28.5826 52.5 26.6581L7.5 0.677331Z" fill="black"/>
<path d="M7.40903e-07 5.00746L-2 5.00746L7.40903e-07 5.00746ZM7.5 0.677331L8.5 -1.05472L7.5 0.677331ZM0 56.969L2 56.969L0 56.969ZM7.5 61.2991L8.5 63.0312L8.5 63.0312L7.5 61.2991ZM52.5 35.3183L51.5 33.5863L51.5 33.5863L52.5 35.3183ZM52.5 26.6581L51.5 28.3901L51.5 28.3901L52.5 26.6581ZM2 5.00746C2 2.69806 4.5 1.25468 6.5 2.40938L8.5 -1.05472C3.83333 -3.74902 -2 -0.381135 -2 5.00746L2 5.00746ZM2 56.969L2 5.00746L-2 5.00746L-2 56.969L2 56.969ZM6.5 59.5671C4.5 60.7218 2 59.2784 2 56.969L-2 56.969C-2 62.3576 3.83334 65.7255 8.5 63.0312L6.5 59.5671ZM51.5 33.5863L6.5 59.5671L8.5 63.0312L53.5 37.0504L51.5 33.5863ZM51.5 28.3901C53.5 29.5448 53.5 32.4316 51.5 33.5863L53.5 37.0504C58.1667 34.3561 58.1667 27.6203 53.5 24.926L51.5 28.3901ZM6.5 2.40938L51.5 28.3901L53.5 24.926L8.5 -1.05472L6.5 2.40938Z" fill="black" mask="url(#path-1-inside-1)"/>
</svg>
