<svg width="512" height="336" viewBox="0 0 512 336" fill="none" xmlns="http://www.w3.org/2000/svg">
<path d="M503.172 335.449H8.828C3.953 335.449 0 331.496 0 326.621V8.828C0 3.953 3.953 0 8.828 0H503.173C508.048 0 512.001 3.953 512.001 8.828V326.621C512 331.497 508.047 335.449 503.172 335.449Z" fill="#DB1B1B"/>
<path d="M185.379 0.000976562H8.828C3.953 0.000976562 0 3.95297 0 8.82797V326.621C0 331.496 3.953 335.449 8.828 335.449H185.38V0.000976562H185.379Z" fill="#02934D"/>
<path d="M185.45 247.105C229.29 247.105 264.83 211.565 264.83 167.725C264.83 123.885 229.29 88.345 185.45 88.345C141.61 88.345 106.07 123.885 106.07 167.725C106.07 211.565 141.61 247.105 185.45 247.105Z" fill="#FFE15A"/>
<path d="M211.932 141.242V176.552C211.932 191.155 200.052 203.035 185.449 203.035C170.846 203.035 158.966 191.155 158.966 176.552V141.242H211.932ZM220.759 123.587H150.138C145.263 123.587 141.31 127.54 141.31 132.415V176.553C141.31 200.929 161.072 220.691 185.448 220.691C209.824 220.691 229.586 200.929 229.586 176.553V132.415C229.587 127.54 225.634 123.587 220.759 123.587Z" fill="#DB1B1B"/>
<path d="M211.932 142.242V177.552C211.932 192.155 200.052 204.035 185.449 204.035C170.846 204.035 158.966 192.155 158.966 177.552V142.242H211.932" fill="#F5F5F5"/>
<path d="M150.07 136.829C152.508 136.829 154.484 134.853 154.484 132.415C154.484 129.977 152.508 128.001 150.07 128.001C147.632 128.001 145.656 129.977 145.656 132.415C145.656 134.853 147.632 136.829 150.07 136.829Z" fill="#FFE15A"/>
<path d="M220.69 136.829C223.128 136.829 225.104 134.853 225.104 132.415C225.104 129.977 223.128 128.001 220.69 128.001C218.252 128.001 216.276 129.977 216.276 132.415C216.276 134.853 218.252 136.829 220.69 136.829Z" fill="#FFE15A"/>
<path d="M150.07 172.139C152.508 172.139 154.484 170.163 154.484 167.725C154.484 165.287 152.508 163.311 150.07 163.311C147.632 163.311 145.656 165.287 145.656 167.725C145.656 170.163 147.632 172.139 150.07 172.139Z" fill="#FFE15A"/>
<path d="M220.69 172.139C223.128 172.139 225.104 170.163 225.104 167.725C225.104 165.287 223.128 163.311 220.69 163.311C218.252 163.311 216.276 165.287 216.276 167.725C216.276 170.163 218.252 172.139 220.69 172.139Z" fill="#FFE15A"/>
<path d="M185.38 136.829C187.818 136.829 189.794 134.853 189.794 132.415C189.794 129.977 187.818 128.001 185.38 128.001C182.942 128.001 180.966 129.977 180.966 132.415C180.966 134.853 182.942 136.829 185.38 136.829Z" fill="#FFE15A"/>
<path d="M211.88 204.689C214.318 204.689 216.294 202.713 216.294 200.275C216.294 197.837 214.318 195.861 211.88 195.861C209.442 195.861 207.466 197.837 207.466 200.275C207.466 202.713 209.442 204.689 211.88 204.689Z" fill="#FFE15A"/>
<path d="M159.4 204.689C161.838 204.689 163.814 202.713 163.814 200.275C163.814 197.837 161.838 195.861 159.4 195.861C156.962 195.861 154.986 197.837 154.986 200.275C154.986 202.713 156.962 204.689 159.4 204.689Z" fill="#FFE15A"/>
<path d="M191.149 165.487V173.089C191.149 176.233 188.591 178.791 185.447 178.791C182.303 178.791 179.745 176.233 179.745 173.089V165.487H191.149Z" fill="#41479B"/>
<path d="M191.149 147.465V155.067C191.149 158.211 188.591 160.769 185.447 160.769C182.303 160.769 179.745 158.211 179.745 155.067V147.465H191.149Z" fill="#41479B"/>
<path d="M191.149 183.694V191.296C191.149 194.44 188.591 196.998 185.447 196.998C182.303 196.998 179.745 194.44 179.745 191.296V183.694H191.149Z" fill="#41479B"/>
<path d="M206.506 165.487V173.089C206.506 176.233 203.948 178.791 200.804 178.791C197.66 178.791 195.102 176.233 195.102 173.089V165.487H206.506Z" fill="#41479B"/>
<path d="M175.794 165.487V173.089C175.794 176.233 173.236 178.791 170.092 178.791C166.948 178.791 164.39 176.233 164.39 173.089V165.487H175.794Z" fill="#41479B"/>
</svg>
