<svg width="513" height="336" viewBox="0 0 513 336" fill="none" xmlns="http://www.w3.org/2000/svg">
<path d="M503.172 335.449H8.828C3.953 335.449 0 331.496 0 326.621V8.828C0 3.953 3.953 0 8.828 0H503.173C508.048 0 512.001 3.953 512.001 8.828V326.621C512 331.496 508.047 335.449 503.172 335.449Z" fill="#41479B"/>
<path d="M512 8.828C512 3.953 508.047 0 503.172 0H463.677L300.137 107.147V0H211.861V107.147L48.322 0H8.828C3.953 0 0 3.953 0 8.828V31.659L140.309 123.586H0V211.862H140.309L0 303.79V326.621C0 331.496 3.953 335.449 8.828 335.449H48.323L211.863 228.302V335.449H300.139V228.302L463.679 335.449H503.174C508.049 335.449 512.002 331.496 512.002 326.621V303.79L371.693 211.863H512V123.587H371.691L512 31.659V8.828Z" fill="#F5F5F5"/>
<path d="M512 141.242H282.483V0H229.517V141.242H0V194.207H229.517V335.449H282.483V194.207H512V141.242Z" fill="#FF4B55"/>
<path d="M178.948 211.862L0.25 327.859C0.875 332.122 4.39 335.449 8.827 335.449H20.986L211.376 211.863H178.948V211.862V211.862Z" fill="#FF4B55"/>
<path d="M346.389 211.862H313.961L504.074 335.266C508.505 334.794 512.002 331.176 512.002 326.62V319.362L346.389 211.862Z" fill="#FF4B55"/>
<path d="M0 18.5733L161.779 123.587H194.207L5.143 0.861328C2.123 2.26433 0 5.27932 0 8.82832V18.5733Z" fill="#FF4B55"/>
<path d="M332.567 123.587L511.694 7.30997C510.95 3.18797 507.51 0.000976562 503.173 0.000976562H490.526L300.139 123.587H332.567Z" fill="#FF4B55"/>
</svg>
