<svg width="1100" height="1100" viewBox="0 0 1100 1100" fill="none" xmlns="http://www.w3.org/2000/svg">
<circle cx="550" cy="550" r="550" fill="#02022B"/>
<path d="M547.913 969.975L550.002 970.936L552.091 969.975L697.231 903.227C841.39 836.927 912.224 673.419 861.985 522.904C835.903 444.754 834.849 361.822 858.934 283.04L870.069 246.621L870.947 243.748L868.823 241.623L826.148 198.948L823.58 196.38L820.344 198.028C731.258 243.389 641.417 242.609 552.332 195.649L550 194.42L547.668 195.649C458.581 242.61 368.741 243.389 279.658 198.028L276.422 196.38L273.854 198.948L231.179 241.623L229.054 243.748L229.933 246.621L241.068 283.04C265.153 361.824 264.099 444.754 238.017 522.903C187.777 673.419 258.614 836.927 402.773 903.227L404.862 898.684L402.773 903.227L547.913 969.975ZM198.264 509.638L193.521 508.055L198.264 509.637C221.568 439.814 222.511 365.682 200.99 295.294C200.99 295.294 200.99 295.294 200.99 295.294L181.616 231.923L269.289 144.248L283.213 152.287C283.213 152.287 283.213 152.287 283.214 152.287C326.113 177.055 368.656 189.569 411.369 189.569C454.083 189.569 496.626 177.055 539.525 152.287L550.002 146.239L560.478 152.287C603.377 177.055 645.921 189.569 688.634 189.569C731.348 189.569 773.891 177.055 816.79 152.287L830.713 144.248L918.384 231.921L899.01 295.292C877.491 365.682 878.434 439.812 901.736 509.636C958.758 680.477 878.368 866.046 714.736 941.298L549.998 1017.06L385.26 941.298C221.632 866.046 141.242 680.477 198.264 509.638Z" fill="#031369" stroke="#F5D252" stroke-width="10"/>
<path d="M214 213L275 185.5L362.5 213L487 206.5L545.5 185.5L688.5 206.5L825.5 185.5L883 250L866 502.5L893.5 606V700L809 840L733.5 902L556 991L390 920L260 801.5L198 656.5L246.5 424L214 213Z" fill="#031369"/>
<path d="M547.366 619.829C548.503 617.745 551.497 617.745 552.634 619.829L564.894 642.311C565.326 643.102 566.09 643.657 566.976 643.823L592.146 648.537C594.48 648.974 595.405 651.821 593.774 653.546L576.181 672.154C575.562 672.809 575.27 673.707 575.386 674.601L578.681 699.996C578.987 702.351 576.565 704.11 574.42 703.092L551.286 692.111C550.472 691.724 549.528 691.724 548.714 692.111L525.58 703.092C523.435 704.11 521.013 702.351 521.319 699.996L524.614 674.601C524.73 673.707 524.438 672.809 523.819 672.154L506.226 653.546C504.595 651.821 505.52 648.974 507.854 648.537L533.024 643.823C533.91 643.657 534.674 643.102 535.106 642.311L547.366 619.829Z" fill="#F5D252"/>
<path d="M647.366 634.829C648.503 632.745 651.497 632.745 652.634 634.829L661.779 651.599C662.211 652.39 662.975 652.945 663.861 653.111L682.635 656.627C684.97 657.064 685.895 659.911 684.263 661.637L671.141 675.516C670.522 676.171 670.23 677.07 670.346 677.963L672.804 696.906C673.109 699.261 670.687 701.02 668.542 700.002L651.286 691.811C650.472 691.424 649.528 691.424 648.714 691.811L631.458 700.002C629.313 701.02 626.891 699.261 627.196 696.906L629.654 677.963C629.77 677.07 629.478 676.171 628.859 675.516L615.737 661.637C614.105 659.911 615.03 657.064 617.365 656.627L636.139 653.111C637.025 652.945 637.789 652.39 638.221 651.599L647.366 634.829Z" fill="#F5D252"/>
<path d="M447.366 629.829C448.503 627.745 451.497 627.745 452.634 629.829L461.779 646.599C462.211 647.39 462.975 647.945 463.861 648.111L482.635 651.627C484.97 652.064 485.895 654.911 484.263 656.637L471.141 670.516C470.522 671.171 470.23 672.07 470.346 672.963L472.804 691.906C473.109 694.261 470.687 696.02 468.542 695.002L451.286 686.811C450.472 686.424 449.528 686.424 448.714 686.811L431.458 695.002C429.313 696.02 426.891 694.261 427.196 691.906L429.654 672.963C429.77 672.07 429.478 671.171 428.859 670.516L415.737 656.637C414.105 654.911 415.03 652.064 417.365 651.627L436.139 648.111C437.025 647.945 437.789 647.39 438.221 646.599L447.366 629.829Z" fill="#F5D252"/>
<path d="M358.027 409.308C362.284 409.016 366.198 409.081 369.768 409.504C373.335 409.861 376.405 410.786 378.98 412.28C381.617 413.703 383.697 415.765 385.219 418.467C386.807 421.165 387.75 424.675 388.047 428.998C388.348 433.388 387.901 437.094 386.705 440.116C385.576 443.134 383.809 445.627 381.405 447.597C379.063 449.495 376.155 450.931 372.68 451.905C369.205 452.878 365.34 453.511 361.083 453.804L345.719 454.859L347.041 474.113C347.251 477.173 351.048 478.449 358.43 477.942L358.828 483.728L323.611 486.147L323.213 480.36C329.133 479.954 331.987 478.221 331.777 475.161L328.119 421.887C327.909 418.827 324.844 417.501 318.925 417.907L318.52 412.021L358.027 409.308ZM343.239 418.744L345.15 446.578L358.818 445.64C364.206 445.27 367.979 443.774 370.138 441.154C372.296 438.533 373.211 434.828 372.883 430.039C372.595 425.849 371.207 422.67 368.719 420.502C366.232 418.334 362.294 417.435 356.907 417.805L343.239 418.744Z" fill="white"/>
<path d="M439.708 403.42C445.037 403.215 449.993 403.692 454.574 404.851C459.221 406.007 463.236 408.054 466.618 410.993C470.064 413.863 472.814 417.727 474.869 422.585C476.923 427.443 478.089 433.47 478.365 440.664C478.593 446.593 477.999 451.987 476.584 456.845C475.167 461.636 472.925 465.792 469.857 469.312C466.788 472.765 462.857 475.518 458.066 477.57C453.272 479.556 447.644 480.672 441.182 480.92C435.919 481.122 430.998 480.677 426.42 479.585C421.841 478.494 417.83 476.546 414.387 473.743C411.01 470.937 408.265 467.206 406.151 462.55C404.104 457.892 402.948 452.099 402.682 445.171C402.444 438.975 402.964 433.385 404.24 428.399C405.514 423.346 407.65 419.028 410.648 415.443C413.643 411.792 417.537 408.941 422.328 406.889C427.12 404.837 432.913 403.681 439.708 403.42ZM440.526 411.694C436.396 411.853 432.856 412.623 429.907 414.003C426.955 415.318 424.558 417.178 422.715 419.583C420.94 421.987 419.651 424.905 418.848 428.338C418.113 431.769 417.828 435.649 417.994 439.98C418.253 446.708 418.964 452.218 420.13 456.51C421.293 460.735 422.855 464.077 424.818 466.537C426.778 468.931 429.109 470.576 431.812 471.473C434.513 472.303 437.529 472.654 440.859 472.526C445.256 472.358 448.929 471.583 451.878 470.202C454.825 468.755 457.15 466.764 458.854 464.23C460.556 461.63 461.736 458.482 462.395 454.787C463.051 451.026 463.287 446.747 463.103 441.951C462.865 435.755 462.137 430.68 460.917 426.723C459.765 422.765 458.211 419.655 456.256 417.395C454.301 415.135 451.974 413.59 449.273 412.76C446.639 411.927 443.724 411.572 440.526 411.694Z" fill="white"/>
<path d="M527.348 408.901C519.948 408.962 516.261 410.525 516.286 413.592L516.743 469.59L536.343 469.43C538.876 469.409 541.14 469.057 543.134 468.374C545.128 467.624 546.852 466.444 548.306 464.832C549.759 463.153 550.907 460.944 551.752 458.203C552.662 455.463 553.268 452.024 553.567 447.888L560.173 448.534L558.006 477.053L492.608 477.587L492.561 471.787C498.494 471.739 501.448 470.181 501.423 467.115L500.986 413.717C500.961 410.65 497.982 409.141 492.049 409.19L492.001 403.29L527.3 403.001L527.348 408.901Z" fill="white"/>
<path d="M608.518 409.367C602.586 409.279 599.597 410.769 599.551 413.835L598.764 467.229C598.719 470.296 601.663 471.873 607.595 471.96L607.51 477.759L574.314 477.27L574.399 471.471C580.398 471.559 583.421 470.07 583.466 467.004L584.253 413.61C584.298 410.543 581.321 408.966 575.322 408.877L575.409 402.978L608.605 403.467L608.518 409.367Z" fill="white"/>
<path d="M693.17 430.816L685.852 431.136C684.734 425.489 682.342 420.894 678.675 417.351C675.075 413.81 670.277 411.924 664.282 411.694C659.885 411.525 656.092 412.147 652.902 413.559C649.712 414.971 647.065 417.004 644.962 419.659C642.925 422.316 641.368 425.526 640.289 429.287C639.211 433.048 638.585 437.194 638.411 441.724C638.219 446.72 638.618 451.106 639.607 454.88C640.666 458.59 642.18 461.717 644.151 464.261C646.19 466.741 648.62 468.635 651.438 469.944C654.323 471.256 657.531 471.98 661.062 472.115C667.99 472.381 673.514 470.992 677.634 467.948C681.756 464.837 684.829 460.385 686.853 454.592L693.46 457.147C692.404 460.309 690.987 463.357 689.206 466.29C687.492 469.227 685.291 471.811 682.604 474.043C679.916 476.275 676.679 478.052 672.892 479.374C669.108 480.63 664.651 481.16 659.521 480.963C654.125 480.756 649.125 479.796 644.521 478.085C639.916 476.374 635.909 473.885 632.498 470.619C629.154 467.355 626.574 463.319 624.757 458.513C622.942 453.64 622.159 447.972 622.407 441.51C622.666 434.782 623.855 428.99 625.976 424.134C628.167 419.215 631.022 415.221 634.542 412.154C638.132 409.023 642.255 406.746 646.913 405.323C651.571 403.901 656.532 403.291 661.795 403.493C667.191 403.7 671.756 404.676 675.492 406.42C679.295 408.168 682.122 410.111 683.975 412.25L686.715 406.051L694.109 406.334L693.17 430.816Z" fill="white"/>
<path d="M775.332 434.269L768.321 434.191C768.209 424.093 764.295 418.781 756.58 418.254L734.232 416.727L732.589 440.771L743.963 441.548C747.954 441.82 750.523 437.953 751.672 429.946L757.957 430.376L754.334 461.401L748.248 460.985C748.146 452.692 746.333 448.425 742.808 448.185L732.133 447.455L730.238 475.191L748.994 476.472C760.168 477.235 766.84 470.541 769.01 456.389L776.145 457.578L771.808 485.849L705.563 481.323L705.958 475.537C711.878 475.941 714.942 474.614 715.151 471.554L718.79 418.278C718.999 415.219 716.144 413.487 710.224 413.082L710.627 407.196L776.872 411.721L775.332 434.269Z" fill="white"/>
<path d="M237.759 640.222L235.586 636.379C238.294 634.805 240.449 633.326 242.051 631.944C243.716 630.581 244.901 629.252 245.606 627.956C246.374 626.68 246.704 625.416 246.595 624.165C246.529 622.892 246.138 621.547 245.424 620.13L242.587 614.505L207.585 632.153C205.668 633.12 205.655 635.478 207.546 639.228L203.921 641.056L193.426 620.242L197.051 618.414C198.921 622.123 200.815 623.494 202.731 622.527L237.734 604.879L234.866 599.191C234.152 597.774 233.303 596.661 232.319 595.85C231.377 595.018 230.155 594.511 228.651 594.328C227.211 594.166 225.437 594.329 223.331 594.816C221.288 595.324 218.828 596.198 215.952 597.439L214.154 593.407L233.28 583.763L256.885 630.579L237.759 640.222Z" fill="white"/>
<path d="M271.994 653.052C273.915 656.254 275.291 659.455 276.123 662.656C276.979 665.898 277.074 669.051 276.409 672.116C275.809 675.198 274.364 678.187 272.074 681.083C269.785 683.98 266.479 686.725 262.157 689.317C258.595 691.454 255.086 692.906 251.628 693.674C248.211 694.417 244.905 694.441 241.712 693.744C238.559 693.023 235.546 691.538 232.673 689.289C229.84 687.016 227.26 683.938 224.931 680.056C223.035 676.894 221.651 673.725 220.779 670.548C219.907 667.37 219.751 664.253 220.312 661.196C220.897 658.179 222.262 655.238 224.407 652.373C226.576 649.548 229.742 646.887 233.904 644.391C237.626 642.158 241.232 640.594 244.721 639.698C248.251 638.779 251.62 638.635 254.829 639.268C258.079 639.877 261.14 641.306 264.013 643.555C266.885 645.804 269.546 648.97 271.994 653.052ZM267.192 656.341C265.704 653.859 264.039 651.946 262.199 650.602C260.398 649.233 258.45 648.388 256.353 648.068C254.28 647.787 252.055 647.979 249.678 648.643C247.325 649.347 244.848 650.479 242.246 652.039C238.204 654.464 235.063 656.756 232.822 658.917C230.62 661.053 229.095 663.138 228.247 665.17C227.438 667.179 227.214 669.164 227.574 671.125C227.974 673.062 228.774 675.031 229.974 677.032C231.558 679.673 233.27 681.666 235.111 683.011C236.992 684.332 238.996 685.088 241.125 685.281C243.294 685.449 245.623 685.113 248.112 684.273C250.641 683.409 253.347 682.113 256.228 680.385C259.95 678.152 262.819 675.996 264.836 673.915C266.878 671.875 268.262 669.874 268.991 667.914C269.72 665.953 269.884 664.004 269.484 662.067C269.108 660.17 268.344 658.262 267.192 656.341Z" fill="white"/>
<path d="M309.528 740.843L306.21 737.469C307.984 735.789 309.286 734.025 310.116 732.177C310.947 730.329 311.381 728.458 311.418 726.563C311.456 724.668 311.11 722.769 310.382 720.865C309.654 718.961 308.604 717.094 307.232 715.265C305.16 712.502 303.013 710.612 300.792 709.595C298.599 708.615 296.457 708.909 294.366 710.477C293.097 711.429 292.397 712.596 292.266 713.977C292.173 715.33 292.387 716.861 292.91 718.569C293.47 720.249 294.245 722.06 295.234 724.001C296.252 725.98 297.246 728.005 298.216 730.077C299.224 732.121 300.092 734.212 300.82 736.349C301.614 738.496 302.029 740.605 302.066 742.677C302.141 744.721 301.74 746.714 300.862 748.655C300.023 750.568 298.483 752.365 296.243 754.045C294.003 755.725 291.767 756.789 289.537 757.237C287.334 757.723 285.159 757.662 283.013 757.055C280.866 756.449 278.789 755.352 276.783 753.765C274.776 752.179 272.863 750.172 271.042 747.745C269.194 745.281 267.864 742.925 267.052 740.675C266.231 738.491 265.755 736.34 265.624 734.221C265.568 733.213 265.316 732.411 264.868 731.813C264.672 731.552 264.084 731.351 263.104 731.211C262.162 731.043 261.186 731.104 260.178 731.394L257.364 727.642L272.708 716.133L275.816 719.577C274.136 721.071 272.862 722.755 271.994 724.631C271.126 726.507 270.646 728.472 270.552 730.525C270.524 732.588 270.884 734.739 271.63 736.979C272.414 739.191 273.618 741.38 275.242 743.545C277.622 746.719 280.058 748.683 282.551 749.439C285.08 750.167 287.689 749.523 290.376 747.507C291.235 746.863 291.767 746.056 291.972 745.085C292.178 744.114 292.131 743.041 291.832 741.865C291.571 740.661 291.137 739.382 290.53 738.029C289.924 736.676 289.224 735.276 288.43 733.829C287.674 732.355 286.904 730.861 286.12 729.349C285.364 727.875 284.692 726.395 284.104 724.911C283.292 722.895 282.699 720.977 282.326 719.157C281.99 717.309 281.957 715.555 282.228 713.893C282.527 712.269 283.171 710.678 284.16 709.119C285.177 707.598 286.638 706.123 288.542 704.695C289.998 703.603 291.599 702.782 293.344 702.231C295.089 701.68 296.923 701.559 298.846 701.867C300.797 702.212 302.775 703.062 304.782 704.415C306.826 705.74 308.856 707.747 310.872 710.435C312.748 712.936 314.087 715.228 314.89 717.309C315.693 719.39 316.211 721.364 316.444 723.231C316.584 724.351 316.878 725.209 317.326 725.807C317.634 726.217 318.241 726.521 319.146 726.717C320.08 726.95 320.971 727.011 321.82 726.899L324.088 729.923L309.528 740.843Z" fill="white"/>
<path d="M344.371 777.793L340.964 774.26C345.943 769.241 346.667 764.68 343.138 760.575L332.916 748.685L320.124 759.683L325.326 765.734C327.152 767.857 330.342 767.238 334.898 763.875L337.773 767.219L320.527 780.661L317.743 777.423C321.827 773.296 323.063 770.296 321.45 768.42L316.567 762.741L301.811 775.427L310.391 785.406C315.502 791.351 322.117 791.387 330.238 785.513L333.152 789.654L316.929 801.386L286.627 766.141L289.706 763.494C292.414 766.644 294.581 767.519 296.209 766.119L324.554 741.75C326.182 740.351 325.642 738.076 322.934 734.927L326.066 732.235L356.367 767.48L344.371 777.793Z" fill="white"/>
<path d="M365.422 839.488C363.767 841.132 361.9 842.033 359.82 842.191C357.774 842.316 355.6 841.22 353.297 838.903C350.732 836.32 349.503 833.891 349.61 831.614C349.749 829.305 350.713 827.262 352.501 825.486L356.226 821.786C359.007 819.023 360.632 816.62 361.1 814.576C361.602 812.498 360.801 810.4 358.696 808.281L351.198 800.733L338.683 813.164C337.16 814.677 338.223 817.271 341.874 820.946L338.994 823.807L321.579 806.277L324.46 803.415C327.387 806.362 329.612 807.079 331.135 805.566L357.655 779.223C359.178 777.71 358.476 775.48 355.549 772.534L358.479 769.623L379.593 790.879C381.204 792.501 382.667 794.205 383.981 795.991C385.328 797.745 386.262 799.546 386.784 801.396C387.339 803.279 387.366 805.193 386.864 807.138C386.396 809.05 385.168 810.993 383.182 812.967C381.891 814.249 380.551 815.185 379.163 815.774C377.808 816.331 376.454 816.623 375.101 816.652C373.781 816.713 372.495 816.544 371.242 816.144C369.99 815.744 368.82 815.195 367.733 814.499C368.29 815.656 368.666 816.828 368.86 818.017C369.087 819.173 369.05 820.36 368.749 821.58C368.514 822.801 367.982 824.053 367.153 825.337C366.356 826.654 365.23 828.036 363.773 829.483L359.204 834.022C358.476 834.746 358.077 835.437 358.009 836.097C357.974 836.724 358.187 837.269 358.647 837.732C359.14 838.229 359.701 838.462 360.328 838.431C360.988 838.367 361.682 837.974 362.411 837.25L364.794 834.882L367.409 837.514L365.422 839.488ZM366.245 785.785L354.525 797.428L362.615 805.572C364.589 807.559 366.549 808.638 368.495 808.809C370.474 808.948 372.557 807.932 374.742 805.761C378.549 801.979 378.414 798.035 374.336 793.93L366.245 785.785Z" fill="white"/>
<path d="M436.177 847.269C434.588 845.895 433.337 845.06 432.422 844.762C431.537 844.43 430.793 844.434 430.189 844.776L386.966 868.019L379.287 861.381L396.516 815.76C396.762 815.048 396.603 814.232 396.04 813.314C395.508 812.36 394.676 811.395 393.547 810.418L396.247 807.293L415.577 824.002L412.876 827.127L408.216 823.098C407.192 822.213 406.421 822.071 405.902 822.671C405.719 822.883 405.573 823.158 405.466 823.497L391.188 860.565L425.435 841.499C425.754 841.343 426.021 841.142 426.235 840.895C426.967 840.047 426.539 838.937 424.95 837.564L421.667 834.726L424.368 831.601L438.825 844.098L436.177 847.269Z" fill="white"/>
<path d="M466.288 883.682L462.189 880.982C465.946 874.994 465.652 870.384 461.309 867.154L448.727 857.795L438.659 871.331L445.062 876.094C447.309 877.765 450.285 876.461 453.993 872.181L457.531 874.813L443.654 891.71L440.228 889.161C443.307 884.24 443.854 881.041 441.87 879.565L435.86 875.094L424.246 890.709L434.805 898.563C441.096 903.242 447.558 901.826 454.192 894.314L457.944 897.715L444.689 912.72L407.395 884.979L409.818 881.722C413.151 884.201 415.457 884.579 416.739 882.856L439.048 852.864C440.329 851.141 439.303 849.041 435.971 846.562L438.436 843.248L475.73 870.988L466.288 883.682Z" fill="white"/>
<path d="M666.648 854.495L662.84 857.928C659.72 855.377 656.382 853.961 652.823 853.682C649.302 853.374 645.872 854.494 642.532 857.041C640.083 858.908 638.312 860.934 637.219 863.118C636.125 865.301 635.602 867.578 635.649 869.948C635.733 872.29 636.322 874.717 637.416 877.228C638.509 879.74 640.018 882.257 641.943 884.78C644.065 887.563 646.234 889.753 648.45 891.35C650.674 892.882 652.885 893.895 655.082 894.391C657.288 894.822 659.444 894.762 661.549 894.213C663.691 893.636 665.745 892.598 667.712 891.098C671.571 888.155 673.935 884.944 674.803 881.464C675.643 877.948 675.319 874.175 673.83 870.146L678.536 868.582C679.375 870.759 679.967 873.037 680.313 875.414C680.696 877.763 680.659 880.139 680.202 882.541C679.745 884.944 678.789 887.345 677.334 889.746C675.85 892.11 673.679 894.382 670.822 896.561C667.816 898.853 664.689 900.563 661.441 901.69C658.193 902.818 654.92 903.259 651.623 903.015C648.364 902.743 645.173 901.714 642.05 899.928C638.899 898.105 635.952 895.394 633.207 891.795C630.348 888.047 628.41 884.39 627.392 880.823C626.383 877.191 626.146 873.763 626.68 870.538C627.223 867.249 628.435 864.182 630.316 861.339C632.197 858.496 634.604 855.956 637.535 853.721C640.541 851.429 643.441 849.921 646.235 849.199C649.067 848.448 651.459 848.237 653.412 848.567L652.13 843.999L656.249 840.858L666.648 854.495Z" fill="white"/>
<path d="M676.624 821.171C679.422 818.699 682.32 816.763 685.316 815.362C688.347 813.93 691.43 813.261 694.565 813.357C697.704 813.386 700.907 814.262 704.172 815.986C707.437 817.709 710.738 820.459 714.075 824.237C716.824 827.35 718.891 830.536 720.276 833.796C721.63 837.021 722.255 840.267 722.152 843.533C722.018 846.765 721.106 849.998 719.418 853.233C717.699 856.432 715.143 859.53 711.75 862.527C708.987 864.968 706.122 866.906 703.157 868.342C700.191 869.778 697.155 870.499 694.046 870.505C690.973 870.479 687.833 869.673 684.625 868.085C681.452 866.467 678.26 863.839 675.047 860.201C672.174 856.948 669.979 853.688 668.462 850.42C666.915 847.117 666.16 843.83 666.198 840.559C666.204 837.254 667.052 833.984 668.74 830.749C670.428 827.515 673.056 824.322 676.624 821.171ZM680.733 825.294C678.564 827.209 676.986 829.194 675.999 831.249C674.981 833.269 674.506 835.338 674.573 837.459C674.674 839.548 675.268 841.701 676.354 843.917C677.475 846.102 679.039 848.332 681.047 850.605C684.168 854.138 686.994 856.81 689.527 858.62C692.028 860.395 694.356 861.515 696.509 861.979C698.632 862.408 700.624 862.267 702.487 861.556C704.318 860.81 706.108 859.665 707.857 858.12C710.166 856.081 711.814 854.034 712.801 851.979C713.757 849.89 714.136 847.781 713.937 845.652C713.707 843.489 712.953 841.26 711.674 838.966C710.363 836.636 708.596 834.212 706.372 831.694C703.499 828.441 700.856 826.013 698.442 824.408C696.064 822.773 693.845 821.776 691.784 821.416C689.724 821.057 687.777 821.251 685.946 821.997C684.149 822.712 682.412 823.811 680.733 825.294Z" fill="white"/>
<path d="M765.973 796.99C767.643 798.62 768.572 800.473 768.762 802.55C768.919 804.594 767.856 806.785 765.574 809.123C763.031 811.727 760.621 812.994 758.343 812.922C756.032 812.818 753.974 811.885 752.171 810.125L748.415 806.458C745.61 803.719 743.182 802.131 741.13 801.694C739.046 801.224 736.96 802.057 734.874 804.194L727.441 811.808L740.063 824.131C741.599 825.63 744.176 824.527 747.795 820.82L750.7 823.656L733.438 841.337L730.533 838.501C733.435 835.529 734.117 833.294 732.581 831.794L705.834 805.681C704.298 804.182 702.08 804.918 699.178 807.89L696.223 805.005L717.152 783.567C718.75 781.931 720.431 780.442 722.197 779.101C723.93 777.727 725.717 776.765 727.558 776.215C729.432 775.632 731.346 775.576 733.298 776.047C735.218 776.486 737.179 777.684 739.183 779.64C740.485 780.911 741.441 782.236 742.052 783.615C742.629 784.961 742.942 786.31 742.992 787.663C743.073 788.982 742.924 790.271 742.543 791.529C742.162 792.788 741.632 793.966 740.952 795.063C742.1 794.488 743.267 794.095 744.452 793.882C745.604 793.637 746.793 793.656 748.017 793.939C749.241 794.155 750.501 794.668 751.797 795.477C753.127 796.253 754.526 797.358 755.995 798.793L760.603 803.292C761.338 804.009 762.036 804.397 762.696 804.455C763.324 804.48 763.866 804.259 764.322 803.792C764.811 803.291 765.035 802.727 764.995 802.1C764.921 801.441 764.517 800.753 763.782 800.036L761.378 797.689L763.969 795.034L765.973 796.99ZM712.264 796.991L724.085 808.532L732.105 800.317C734.061 798.314 735.109 796.337 735.251 794.389C735.359 792.407 734.311 790.341 732.108 788.189C728.268 784.44 724.326 784.636 720.284 788.777L712.264 796.991Z" fill="white"/>
<path d="M802.274 753.416C804.061 754.917 805.126 756.696 805.47 758.752C805.779 760.779 804.882 763.043 802.781 765.544C800.439 768.331 798.13 769.774 795.853 769.872C793.54 769.94 791.419 769.164 789.49 767.543L785.471 764.165C782.469 761.644 779.93 760.241 777.852 759.958C775.738 759.645 773.72 760.631 771.799 762.918L764.954 771.064L778.459 782.412C780.103 783.793 782.591 782.5 785.923 778.534L789.032 781.146L773.136 800.065L770.027 797.453C772.699 794.273 773.213 791.992 771.57 790.612L742.951 766.565C741.307 765.184 739.15 766.084 736.478 769.263L733.316 766.607L752.589 743.669C754.06 741.918 755.626 740.308 757.287 738.839C758.913 737.34 760.623 736.247 762.418 735.562C764.244 734.84 766.147 734.642 768.13 734.966C770.077 735.261 772.122 736.309 774.266 738.11C775.659 739.281 776.711 740.531 777.423 741.86C778.099 743.16 778.512 744.482 778.662 745.827C778.842 747.136 778.789 748.433 778.503 749.716C778.217 751 777.775 752.214 777.179 753.359C778.281 752.7 779.416 752.22 780.582 751.92C781.713 751.59 782.899 751.521 784.141 751.711C785.377 751.835 786.672 752.253 788.026 752.963C789.409 753.638 790.887 754.636 792.459 755.957L797.39 760.1C798.176 760.76 798.9 761.095 799.563 761.104C800.191 761.082 800.715 760.821 801.135 760.321C801.585 759.785 801.767 759.206 801.68 758.585C801.557 757.933 801.103 757.277 800.317 756.616L797.744 754.455L800.131 751.614L802.274 753.416ZM748.715 757.42L761.363 768.047L768.748 759.258C770.55 757.114 771.448 755.065 771.444 753.111C771.404 751.127 770.205 749.145 767.847 747.163C763.739 743.711 759.823 744.2 756.1 748.63L748.715 757.42Z" fill="white"/>
<path d="M807.529 697.078L804.881 701.21C798.846 697.53 794.241 697.882 791.065 702.266L781.867 714.965L795.53 724.861L800.211 718.398C801.853 716.131 800.511 713.171 796.185 709.518L798.771 705.947L815.843 719.608L813.338 723.067C808.378 720.05 805.173 719.543 803.722 721.546L799.328 727.612L815.088 739.028L822.808 728.37C827.407 722.02 825.909 715.576 818.314 709.038L821.667 705.243L836.838 718.307L809.573 755.95L806.285 753.568C808.721 750.204 809.07 747.893 807.332 746.634L777.059 724.706C775.32 723.447 773.233 724.499 770.796 727.863L767.451 725.44L794.717 687.797L807.529 697.078Z" fill="white"/>
<path d="M836.882 652.455L834.538 657.015C830.717 655.735 827.093 655.595 823.667 656.595C820.265 657.556 817.454 659.819 815.234 663.384C813.606 665.999 812.668 668.521 812.42 670.95C812.172 673.379 812.489 675.693 813.374 677.893C814.283 680.053 815.693 682.114 817.606 684.074C819.519 686.035 821.822 687.854 824.516 689.531C827.487 691.381 830.291 692.66 832.929 693.368C835.552 694.012 837.978 694.176 840.209 693.861C842.424 693.481 844.419 692.661 846.193 691.402C847.991 690.103 849.544 688.404 850.851 686.304C853.417 682.184 854.489 678.344 854.067 674.783C853.606 671.197 851.965 667.784 849.145 664.544L852.991 661.414C854.547 663.152 855.908 665.072 857.074 667.172C858.265 669.233 859.073 671.468 859.497 673.876C859.922 676.284 859.879 678.869 859.369 681.63C858.82 684.367 857.595 687.26 855.696 690.31C853.698 693.519 851.38 696.226 848.742 698.432C846.104 700.638 843.201 702.211 840.032 703.151C836.887 704.051 833.538 704.22 829.986 703.657C826.393 703.07 822.676 701.58 818.833 699.187C814.832 696.696 811.724 693.963 809.508 690.989C807.276 687.95 805.839 684.829 805.196 681.624C804.537 678.356 804.584 675.059 805.335 671.733C806.086 668.408 807.436 665.18 809.385 662.051C811.383 658.842 813.56 656.405 815.917 654.739C818.298 653.033 820.461 651.988 822.404 651.604L819.586 647.787L822.324 643.39L836.882 652.455Z" fill="white"/>
<path d="M866.185 605.787L864.314 609.786C861.461 608.494 859.007 607.596 856.951 607.093C854.876 606.527 853.105 606.332 851.64 606.51C850.156 606.624 848.935 607.089 847.978 607.903C846.98 608.696 846.112 609.794 845.372 611.198L842.435 616.771L877.114 635.046C879.013 636.047 880.942 634.69 882.9 630.974L886.492 632.867L875.625 653.489L872.033 651.596C873.969 647.922 873.988 645.584 872.089 644.583L837.409 626.308L834.44 631.944C833.7 633.347 833.285 634.685 833.195 635.956C833.064 637.206 833.36 638.496 834.083 639.827C834.787 641.094 835.948 642.445 837.567 643.878C839.166 645.248 841.305 646.744 843.984 648.367L841.742 652.171L822.792 642.185L847.235 595.801L866.185 605.787Z" fill="white"/>
<path d="M581.52 906.98C579.42 906.98 577.927 907.237 577.04 907.75C576.153 908.217 575.71 908.987 575.71 910.06C575.71 913 575.01 915.987 573.61 919.02C572.21 922.007 570.18 924.713 567.52 927.14C568.547 927.793 569.573 928.33 570.6 928.75C571.627 929.123 572.607 929.31 573.54 929.31C575.127 929.31 576.41 928.89 577.39 928.05C578.37 927.21 578.86 925.857 578.86 923.99V920.07H582.85V923.99C582.85 927.49 581.963 930.22 580.19 932.18C578.417 934.14 575.71 935.12 572.07 935.12C570.25 935.12 568.453 934.793 566.68 934.14C564.907 933.533 563.133 932.67 561.36 931.55C559.26 932.67 557.043 933.533 554.71 934.14C552.423 934.793 549.997 935.12 547.43 935.12C544.723 935.12 542.157 934.817 539.73 934.21C537.303 933.65 535.157 932.763 533.29 931.55C531.47 930.29 530.023 928.68 528.95 926.72C527.877 924.76 527.34 922.38 527.34 919.58C527.34 917.433 527.667 915.52 528.32 913.84C528.973 912.16 529.86 910.69 530.98 909.43C532.1 908.123 533.407 906.98 534.9 906C536.393 905.02 537.98 904.133 539.66 903.34C538.027 899.7 537.21 896.41 537.21 893.47C537.21 891.65 537.513 889.97 538.12 888.43C538.773 886.89 539.683 885.56 540.85 884.44C542.063 883.32 543.51 882.457 545.19 881.85C546.917 881.197 548.853 880.87 551 880.87C554.22 880.87 556.857 881.78 558.91 883.6C560.963 885.373 561.99 887.94 561.99 891.3C561.99 893.12 561.663 894.73 561.01 896.13C560.357 897.483 559.47 898.697 558.35 899.77C557.277 900.797 556.04 901.73 554.64 902.57C553.24 903.41 551.793 904.203 550.3 904.95C551.887 908.217 553.753 911.507 555.9 914.82C558.093 918.133 560.38 921.003 562.76 923.43C564.533 921.75 565.98 919.767 567.1 917.48C568.22 915.193 568.78 912.72 568.78 910.06C568.78 908.987 568.313 908.217 567.38 907.75C566.493 907.237 565 906.98 562.9 906.98V902.92H581.52V906.98ZM542.6 909.64C540.92 910.76 539.52 912.043 538.4 913.49C537.28 914.937 536.72 916.78 536.72 919.02C536.72 920.607 536.977 922.053 537.49 923.36C538.05 924.62 538.797 925.717 539.73 926.65C540.71 927.537 541.853 928.237 543.16 928.75C544.467 929.217 545.89 929.45 547.43 929.45C548.83 929.45 550.253 929.287 551.7 928.96C553.147 928.633 554.547 928.143 555.9 927.49C553.24 925.063 550.743 922.287 548.41 919.16C546.123 916.033 544.187 912.86 542.6 909.64ZM548.2 899.77C549.273 899.257 550.277 898.72 551.21 898.16C552.143 897.6 552.96 896.97 553.66 896.27C554.36 895.523 554.897 894.707 555.27 893.82C555.69 892.933 555.9 891.907 555.9 890.74C555.9 888.967 555.503 887.707 554.71 886.96C553.917 886.213 552.773 885.84 551.28 885.84C550.393 885.84 549.623 886.027 548.97 886.4C548.363 886.727 547.85 887.193 547.43 887.8C547.057 888.36 546.777 889.013 546.59 889.76C546.403 890.507 546.31 891.253 546.31 892C546.31 893.073 546.473 894.263 546.8 895.57C547.127 896.83 547.593 898.23 548.2 899.77Z" fill="white"/>
<path d="M331.89 314.414L326.129 315.521C324.645 311.162 322.262 307.771 318.98 305.349C315.697 302.927 311.693 301.94 306.968 302.386C303.463 302.717 300.521 303.612 298.141 305.069C295.761 306.526 293.877 308.418 292.49 310.746C291.103 313.073 290.181 315.785 289.724 318.882C289.261 321.926 289.198 325.226 289.534 328.784C289.951 333.191 290.754 336.865 291.942 339.806C293.179 342.689 294.735 344.98 296.61 346.677C298.538 348.37 300.736 349.528 303.206 350.152C305.671 350.723 308.363 350.87 311.283 350.594C313.354 350.398 315.294 349.947 317.102 349.241C318.958 348.476 320.531 347.55 321.821 346.464C323.107 345.325 324.087 344.08 324.763 342.731C325.487 341.323 325.779 339.876 325.639 338.389L325.247 334.248C325.016 331.805 322.511 330.81 317.733 331.261L317.296 326.642L341.667 324.338L342.104 328.958C337.325 329.409 335.051 330.857 335.282 333.299L337.232 353.927L329.188 354.687L326.879 348.959C326.221 349.932 325.348 350.899 324.26 351.859C323.172 352.819 321.864 353.719 320.337 354.56C318.862 355.396 317.134 356.095 315.151 356.657C313.227 357.267 311.07 357.686 308.68 357.911C304.911 358.268 301.221 358.054 297.611 357.27C293.996 356.433 290.719 354.922 287.781 352.735C284.89 350.491 282.467 347.532 280.513 343.86C278.554 340.134 277.316 335.537 276.799 330.068C276.287 324.652 276.642 319.904 277.863 315.825C279.085 311.745 280.931 308.329 283.403 305.578C285.924 302.768 288.958 300.58 292.506 299.012C296.107 297.44 299.979 296.458 304.12 296.066C308.421 295.66 312.145 295.95 315.292 296.939C318.492 297.922 320.94 299.164 322.635 300.664L324.152 295.458L330.046 294.901L331.89 314.414Z" fill="white"/>
<path d="M416.489 339.615C416.662 342.276 416.035 344.562 414.609 346.471C413.18 348.328 410.603 349.377 406.877 349.619C402.726 349.889 399.71 349.123 397.829 347.321C395.945 345.466 394.909 343.101 394.723 340.227L394.334 334.24C394.043 329.769 393.194 326.564 391.785 324.625C390.373 322.632 387.964 321.747 384.558 321.968L372.423 322.756L373.73 342.874C373.889 345.322 376.922 346.354 382.83 345.97L383.131 350.601L354.95 352.431L354.649 347.801C359.386 347.493 361.675 346.115 361.516 343.667L358.747 301.037C358.588 298.589 356.14 297.518 351.403 297.826L351.097 293.116L385.265 290.897C387.873 290.727 390.44 290.748 392.965 290.958C395.488 291.114 397.741 291.663 399.726 292.603C401.765 293.539 403.433 294.954 404.732 296.847C406.027 298.687 406.779 301.204 406.986 304.397C407.121 306.473 406.921 308.33 406.386 309.968C405.847 311.553 405.082 312.938 404.09 314.125C403.152 315.309 402.04 316.289 400.754 317.068C399.469 317.846 398.118 318.441 396.701 318.854C398.116 319.243 399.409 319.801 400.578 320.526C401.744 321.199 402.739 322.123 403.564 323.299C404.438 324.418 405.117 325.817 405.6 327.495C406.137 329.171 406.481 331.179 406.633 333.521L407.11 340.866C407.186 342.037 407.483 342.899 408 343.453C408.513 343.955 409.143 344.181 409.888 344.133C410.686 344.081 411.307 343.773 411.752 343.21C412.193 342.593 412.375 341.699 412.299 340.529L412.05 336.697L416.281 336.422L416.489 339.615ZM370.852 298.567L372.076 317.407L385.168 316.557C388.362 316.349 390.763 315.472 392.373 313.924C393.979 312.323 394.668 309.767 394.44 306.254C394.042 300.134 390.544 297.288 383.945 297.717L370.852 298.567Z" fill="white"/>
<path d="M485.061 338.765C485.65 340.345 487.864 341.067 491.702 340.93L491.866 345.568L462.605 346.606L462.44 341.969L469.476 341.72C471.021 341.665 471.776 341.131 471.74 340.118C471.734 339.958 471.644 339.668 471.469 339.247L467.965 330.726L443.42 331.598L440.746 339.698C440.65 340.021 440.609 340.343 440.62 340.663C440.669 342.049 441.866 342.7 444.211 342.617L449.168 342.441L449.333 347.078L427.507 347.853L427.339 343.135C429.578 343.056 431.224 342.811 432.276 342.4C433.329 341.989 433.975 341.406 434.215 340.65L452.341 287.493L463.933 287.082L485.061 338.765ZM445.289 325.608L465.756 324.881L454.603 297.099L445.289 325.608Z" fill="white"/>
<path d="M581.299 290.29C576.499 290.303 574.103 291.537 574.109 293.99L574.227 336.71C574.234 339.163 576.637 340.383 581.437 340.37L581.45 345.01L555.21 345.082L555.197 340.442C559.944 340.429 562.314 339.196 562.307 336.743L562.192 294.823L544.81 345.111L534.41 345.14L516.752 294.948L516.867 336.868C516.874 339.322 519.251 340.542 523.998 340.529L524.01 345.169L503.13 345.226L503.118 340.586C507.864 340.573 510.234 339.34 510.227 336.887L510.11 294.167C510.103 291.713 507.726 290.493 502.979 290.506L502.966 285.786L526.806 285.721L542.775 332.397L558.486 285.633L581.286 285.57L581.299 290.29Z" fill="white"/>
<path d="M672.84 293.038C668.042 292.881 665.604 294.029 665.523 296.481L664.125 339.178C664.045 341.63 666.404 342.934 671.201 343.091L671.049 347.729L644.823 346.87L644.975 342.233C649.719 342.388 652.131 341.24 652.212 338.788L653.583 296.89L634.429 346.53L624.034 346.19L608.168 295.403L606.796 337.301C606.716 339.753 609.048 341.056 613.792 341.212L613.64 345.849L592.771 345.166L592.923 340.529C597.667 340.684 600.079 339.535 600.16 337.083L601.557 294.386C601.638 291.934 599.306 290.631 594.562 290.475L594.716 285.758L618.543 286.538L632.846 333.751L650.206 287.575L672.994 288.321L672.84 293.038Z" fill="white"/>
<path d="M740.556 345.146C740.983 346.778 743.113 347.719 746.945 347.97L746.641 352.6L717.424 350.685L717.728 346.055L724.753 346.516C726.296 346.617 727.101 346.162 727.167 345.151C727.177 344.991 727.117 344.693 726.985 344.257L724.357 335.426L699.85 333.82L696.373 341.609C696.245 341.921 696.171 342.237 696.15 342.556C696.06 343.94 697.185 344.709 699.527 344.862L704.476 345.187L704.173 349.817L682.379 348.388L682.688 343.678C684.923 343.825 686.585 343.747 687.674 343.444C688.763 343.141 689.465 342.626 689.78 341.898L713.17 290.839L724.745 291.598L740.556 345.146ZM702.312 328.048L722.749 329.388L714.452 300.624L702.312 328.048Z" fill="white"/>
<path d="M820.699 350.65C820.447 353.305 819.465 355.462 817.753 357.12C816.047 358.726 813.336 359.352 809.619 358.999C805.478 358.605 802.622 357.369 801.052 355.291C799.486 353.16 798.84 350.66 799.113 347.793L799.681 341.82C800.105 337.36 799.776 334.061 798.694 331.922C797.617 329.731 795.379 328.473 791.981 328.15L779.876 326.998L777.967 347.068C777.734 349.51 780.565 351.012 786.458 351.572L786.019 356.191L757.906 353.517L758.345 348.898C763.07 349.347 765.549 348.351 765.782 345.909L769.827 303.381C770.059 300.938 767.813 299.492 763.087 299.043L763.534 294.344L797.62 297.586C800.222 297.834 802.753 298.262 805.213 298.871C807.678 299.427 809.816 300.327 811.626 301.571C813.489 302.819 814.912 304.481 815.893 306.557C816.879 308.579 817.221 311.184 816.918 314.369C816.721 316.44 816.228 318.241 815.439 319.773C814.656 321.253 813.68 322.499 812.512 323.513C811.397 324.532 810.143 325.324 808.75 325.888C807.357 326.452 805.929 326.825 804.465 327.007C805.8 327.616 806.987 328.372 808.026 329.274C809.071 330.124 809.906 331.194 810.534 332.486C811.219 333.73 811.667 335.219 811.877 336.953C812.14 338.693 812.16 340.73 811.938 343.067L811.241 350.394C811.13 351.562 811.286 352.46 811.708 353.09C812.135 353.666 812.721 353.99 813.464 354.06C814.26 354.136 814.923 353.931 815.451 353.446C815.984 352.907 816.307 352.054 816.418 350.886L816.781 347.063L821.002 347.465L820.699 350.65ZM782.171 302.867L780.383 321.662L793.444 322.905C796.63 323.208 799.14 322.723 800.976 321.451C802.816 320.126 803.903 317.712 804.236 314.208C804.817 308.102 801.815 304.736 795.232 304.11L782.171 302.867Z" fill="white"/>
</svg>
