<svg width="480" height="480" viewBox="0 0 480 480" fill="none" xmlns="http://www.w3.org/2000/svg">
<g clip-path="url(#clip0)">
<path d="M278.944 17.5769C273.376 14.9209 266.816 15.6249 262.016 19.4969L106.368 144.009H32C14.368 144.009 0 158.377 0 176.009V304.009C0 321.673 14.368 336.009 32 336.009H106.368L261.984 460.521C264.896 462.825 268.448 464.009 272 464.009C274.368 464.009 276.736 463.465 278.944 462.409C284.48 459.753 288 454.153 288 448.009V32.0089C288 25.8649 284.48 20.2649 278.944 17.5769Z" fill="black"/>
<path d="M368.992 126.857C362.688 120.649 352.576 120.745 346.368 126.985C340.16 133.289 340.224 143.401 346.496 149.641C370.688 173.513 384 205.609 384 240.009C384 274.409 370.688 306.505 346.496 330.377C340.224 336.553 340.16 346.697 346.368 353.001C349.504 356.169 353.632 357.737 357.728 357.737C361.792 357.737 365.856 356.201 368.992 353.097C399.328 323.241 416 283.049 416 240.009C416 196.969 399.328 156.777 368.992 126.857Z" fill="black"/>
<path d="M414.144 81.7689C407.84 75.5289 397.728 75.5929 391.488 81.8649C385.28 88.1369 385.344 98.2809 391.584 104.489C427.968 140.553 448 188.681 448 240.009C448 291.337 427.968 339.433 391.584 375.497C385.344 381.737 385.28 391.881 391.488 398.153C394.656 401.289 398.752 402.857 402.848 402.857C406.912 402.857 411.008 401.321 414.144 398.217C456.64 356.137 480 299.945 480 240.009C480 180.073 456.64 123.881 414.144 81.7689Z" fill="black"/>
<rect x="24.7488" y="-9" width="641.395" height="45" rx="20" transform="rotate(45 24.7488 -9)" fill="black"/>
</g>
<defs>
<clipPath id="clip0">
<rect width="480" height="480" fill="white"/>
</clipPath>
</defs>
</svg>
